<?xml version="1.0" encoding="UTF-8"?>
<svg width="512pt" height="512pt" version="1.1" viewBox="0 0 512 512" xmlns="http://www.w3.org/2000/svg">
 <path d="m334.28 356.92c-32 26.879-73.262 43.082-118.28 43.082-101.56 0-184-82.441-184-184 0-101.56 82.441-184 184-184 101.56 0 184 82.441 184 184 0 45.02-16.199 86.281-43.082 118.28l118.4 118.4c6.2422 6.2422 6.2422 16.398 0 22.641-6.2422 6.2422-16.398 6.2422-22.641 0zm-0.10156-45.359c21.141-26.121 33.82-59.359 33.82-95.559 0-83.883-68.121-152-152-152-83.883 0-152 68.121-152 152 0 83.883 68.121 152 152 152 36.199 0 69.438-12.68 95.559-33.82 8.3008-6.7188 15.898-14.32 22.621-22.621z" fill="#fff" fill-rule="evenodd"/>
</svg>
