<?xml version="1.0" encoding="UTF-8"?>
<svg width="1200pt" height="1200pt" version="1.1" viewBox="0 0 1200 1200" xmlns="http://www.w3.org/2000/svg">
 <path d="m1083 160.64c-59.156-59.156-137.58-89.906-220.87-86.578-90.234 3.6094-180.66 46.922-262.08 125.44-55.688-53.719-115.03-90.797-176.63-110.25-58.406-18.469-118.59-20.391-174.1-5.5312-103.12 27.703-185.11 111.66-213.94 219.24-35.344 131.95 12.094 275.34 130.13 393.42l426.47 426.47c2.1562 2.1562 5.0156 3.3281 8.0625 3.3281 3 0 5.9062-1.2188 8.0625-3.3281l426.47-426.47c88.781-88.781 137.63-190.55 141.24-294.24 3.1875-91.359-30.656-179.39-92.766-241.5zm-64.594 519.66-418.4 418.4-418.36-418.4c-112.17-112.17-157.45-247.55-124.26-371.44 26.719-99.703 102.52-177.52 197.81-203.06 23.438-6.2812 47.25-9.375 71.25-9.375 89.859 0 182.02 43.641 265.5 127.18 2.1562 2.1562 5.0156 3.3281 8.0625 3.3281 3 0 5.9062-1.2188 8.0625-3.3281 79.406-79.406 167.58-123.19 254.95-126.71 76.875-3.0938 149.26 25.312 203.86 79.922 113.06 113.06 132.74 322.36-48.469 503.53z" fill="#fff"/>
</svg>
