<?xml version="1.0" encoding="UTF-8"?>
<svg width="1200pt" height="1200pt" version="1.1" viewBox="0 0 1200 1200" xmlns="http://www.w3.org/2000/svg">
 <path d="m624.71 92.719c-12.797-13.969-36.609-13.969-49.453 0l-482.63 525.66c-22.312 24.281-5.1094 54.797 21.094 54.797h124.08c9.5156 0 17.25 7.7344 17.25 17.25v390.61c0 20.297 16.453 36.609 36.703 36.609h174.1v-250.13c0-39.094 32.016-71.156 71.203-71.156h126c39.188 0 71.203 32.062 71.203 71.156v250.13h174.1c20.203 0 36.703-16.312 36.703-36.609v-390.61c0-9.5156 7.7344-17.25 17.25-17.25h124.03c26.156 0 43.406-30.469 21.094-54.797zm-74.766-23.344c26.391-28.781 73.688-28.781 100.12 0l482.68 525.71c42.75 46.547 9.375 112.59-46.453 112.59h-106.78v373.36c0 39.094-32.016 71.109-71.203 71.109h-191.34c-9.5156 0-17.25-7.7344-17.25-17.25v-267.37c0-20.297-16.453-36.609-36.703-36.609h-126c-20.203 0-36.703 16.312-36.703 36.609v267.37c0 9.5156-7.7344 17.25-17.25 17.25h-191.34c-39.188 0-71.203-32.062-71.203-71.109v-373.36h-106.78c-55.781 0-89.156-66.094-46.406-112.59z" fill="#fff" fill-rule="evenodd"/>
</svg>
