<?xml version="1.0" encoding="UTF-8"?>
<svg width="1200pt" height="1200pt" version="1.1" viewBox="0 0 1200 1200" xmlns="http://www.w3.org/2000/svg">
 <g fill="#fff">
  <path d="m1069.4 332.89-273.54 155.66c-2.3633-4.1523-4.8594-8.2812-7.5-12.215l263.06-172.73c-9.8398-14.953-20.398-29.375-31.621-43.246l-244.64 197.93c-2.2578-2.7969-4.5703-5.5195-6.9609-8.1953l-0.12109-0.10938-0.15625-0.20312-0.097656-0.10938-0.17969-0.16797-0.097657-0.13281-0.15625-0.16797-0.10937-0.13281-0.15625-0.17969-0.097657-0.10938-0.17969-0.17969-0.097656-0.10938-0.15625-0.17969-0.12109-0.13281-0.16797-0.16797-0.097656-0.10938-0.16797-0.17969-0.10547-0.125-0.17969-0.17969-0.097656-0.10938-0.16797-0.17969-0.12109-0.13281-0.15625-0.17969-0.097656-0.13281-0.17969-0.16797-0.10547-0.12109-0.16797-0.17969-0.10938-0.12109-0.16797-0.16797-0.097656-0.13281-0.16797-0.16797-0.12109-0.13281-0.16797-0.16797-0.097656-0.12109-0.16797-0.17969-0.27734-0.27734-0.097656-0.13281-0.17969-0.16797-0.097656-0.10938-0.16797-0.17969-0.10938-0.097656-0.16797-0.20312-0.097656-0.097656-0.17969-0.16797-0.097657-0.13281-0.17969-0.16797-0.12109-0.13281-0.15625-0.16797-0.13281-0.097657-0.15625-0.19141-0.10938-0.097656-0.17969-0.16797-0.097656-0.10938-0.16797-0.17969-0.10938-0.097657-0.16797-0.20312-0.10938-0.097656-0.16797-0.17969-0.10937-0.097656-0.17969-0.17969-0.097656-0.10938-0.23828-0.19531-0.13281-0.097656-0.16797-0.17969-0.097656-0.097657-0.17969-0.19141-0.10938-0.097656-0.27734-0.27734-0.45703-0.46875-0.12109-0.097656-0.17969-0.17969-0.12109-0.097656c-2.5547-2.5195-5.1836-4.9336-7.8477-7.3555l209.38-234.91c-95.441-85.18-221.3-136.94-359.27-136.94-298.25 0-540.01 241.77-540.01 540.01 0 97.188 25.668 188.36 70.609 267.14l273.56-155.69c2.3633 4.1055 4.8711 8.2188 7.5 12.215l-263.07 172.74c9.8398 14.941 20.398 29.375 31.621 43.246l244.65-197.95c2.2422 2.7734 4.5586 5.5078 6.9492 8.1953l0.10938 0.13281 0.15625 0.16797 0.097656 0.13281 0.17969 0.16797 0.097657 0.14453 0.15625 0.15625 0.12109 0.13281 0.15625 0.17969 0.38281 0.42188 0.16797 0.16797 0.097657 0.13281 0.16797 0.16797 0.10937 0.13281 0.15625 0.16797 0.38281 0.42188 0.16797 0.16797 0.10938 0.13281 0.15625 0.16797 0.097656 0.12109 0.17969 0.17969 0.64844 0.71875 0.16797 0.15625 0.10938 0.14453 0.16797 0.15625 1.1055 1.1758 0.10938 0.10938 0.16797 0.17969 0.097656 0.10938 0.17969 0.16797 0.097656 0.13281 0.17969 0.16797 0.10938 0.13281 0.28906 0.28906 0.15625 0.16797 0.12109 0.10938 0.17969 0.16797 0.097657 0.13281 0.45703 0.45703 0.13281 0.10938 0.15625 0.16797 0.10938 0.13281 0.17969 0.15625 0.097656 0.13281 0.16797 0.16797 0.13281 0.10937 0.15625 0.16797 0.10938 0.12109 0.17969 0.16797 0.10938 0.13281 0.16797 0.15625 0.10937 0.13281 0.16797 0.15625 0.13281 0.12109 0.15625 0.17969 0.10938 0.12109 0.17969 0.16797 0.12109 0.12109c2.6055 2.5078 5.2422 4.9688 7.8477 7.3438l-209.3 234.86c95.461 85.141 221.3 136.88 359.28 136.88 298.23 0 539.99-241.74 539.99-539.99 0-97.188-25.68-188.35-70.609-267.12zm-469.38 433.27c-91.777 0-166.15-74.375-166.15-166.15 0-91.777 74.375-166.15 166.15-166.15 91.738 0 166.15 74.375 166.15 166.15 0 91.777-74.41 166.15-166.15 166.15z"/>
  <path d="m600.01 574.5c14.09 0 25.512 11.426 25.512 25.512 0 14.09-11.426 25.512-25.512 25.512-14.09 0-25.512-11.426-25.512-25.512 0-14.086 11.426-25.512 25.512-25.512z"/>
 </g>
</svg>
